<svg data-name="cparta-helmet" xmlns="http://www.w3.org/2000/svg" viewBox="0 0 146.86 181.33">
  <path class="cparta-helmet" d="m80.78,59.28c4.15-5.83,11.01-15.34,15.98-20.01,0,0-79.49,2.41-77.98,80.7,0,0-16.12-82.36,85.97-91.61,0,0,6.91-8.51,12.38-15.07,5.47-6.56,12.27-13.03,12.27-13.03C25.22-4.58-6.21,60.78.98,104.84c4.01,24.62,21.61,41.6,39.22,53.78,5.95,4.12,7.92,11.4,7.92,11.4,2.89-7.9.55-15.59.55-15.59-14.94-9.87-25.44-39.76-11.98-63.26,15.23-26.59,43.35-20.73,43.35-20.73,2.24-2.34,4.45-5.76,4.45-5.76l-2.36-.12c-4.53-.23-3.25-2.6-1.35-5.28Z"></path>
  <path class="cparta-helmet" d="m117.1,123.23c-.18-2.65,11.09.9,11.09.9l-3.17-6.64,13.13,3.4s-29.15-30.09-39.58-69.16c0,0-4.42,11.91-15.95,27.79-11.04,15.21-34.89,41.48-34.89,41.48,33.83-26.25,50.55-51.53,50.55-51.53,6.6,17.86,21.93,38.21,27.34,45.1v-.02s-10.28-.58-10.28-.58c-1.78-4.01-2.89-6.56-11.72-7.66-11.81-1.47-23.85-2.8-23.85-2.8l4.35,7.26c1.65,2.61,2.23,3.56,4.05,4.05,1.82.49,7.02,1.69,9.68,2.21,2.11.41,4.3.62,6.18,5.7,2.57,6.93,13.21,28.96,36.69,35.21,0,0-14.62-8.85-20.15-21.91-3.41-8.05-3.29-10.24-3.47-12.81"></path>
  <path class="cparta-helmet" d="m146.86,167.81s-35.79,4.4-36.46,4.85-2.07,5.88-.5,8.67c0,0-33.34.36-52.51-3.6,0,0,5.26-11.48,4.59-15.49-.67-4.01-5.57-4.22-5.57-4.22,6.52-11.29,17.88-16.98,17.88-16.98-9.23-5.99-19.69,2.92-19.69,2.92-6.32-5.31-9.81-13.6-9.81-13.6,0,0,7.64-5.92,19.34-5.29,7.88.42,15.97,1.08,23.73,15.41,7.7,14.23-1.31,29.34,59,27.34Z"></path>
</svg>